<?xml version="1.0" encoding="UTF-8"?>
<svg id="Layer_1" xmlns="http://www.w3.org/2000/svg" viewBox="0 0 50 50">
  <defs>
    <style>
      .cls-1 {
        fill: #f58220;
      }

      .cls-2 {
        fill: #fff;
      }

      .cls-3 {
        fill: #fcfbfa;
      }

      .cls-4 {
        fill: #f6f9f4;
      }
    </style>
  </defs>
  <circle class="cls-1" cx="25" cy="25" r="21.72"/>
  <g>
    <g>
      <path class="cls-2" d="M21.74,19.3c0-3.17,2.57-5.75,5.74-5.75h6.85c1.33,0,2.42-1.09,2.41-2.42h0c0-1.33-1.08-2.42-2.42-2.41h-6.85c-5.84,0-10.58,4.75-10.57,10.59v6.85c0,1.33,1.09,2.42,2.42,2.41h0c1.33,0,2.42-1.08,2.41-2.42v-6.85Z"/>
      <path class="cls-2" d="M27.98,23.3v6.85c0,3.17-2.56,5.75-5.74,5.75h-6.85c-1.33,0-2.42,1.09-2.41,2.42h0c0,1.33,1.08,2.42,2.42,2.41h6.85c5.84,0,10.58-4.75,10.57-10.59v-6.85c0-1.33-1.09-2.42-2.42-2.41h0c-1.33,0-2.42,1.08-2.41,2.42Z"/>
    </g>
    <path class="cls-3" d="M22.13,35.9s4.06.12,5.5-3.83c0,0,4.08-1.55,3.59-11.05,0,0,1.44.39,1.65,2.05l-.05,8.13s-.46,6.93-10.69,4.71Z"/>
    <path class="cls-4" d="M36.45,9.97s.75,1.3-.11,2.5c0,0-.66.96-1.72,1.06l-7.54.04s-4.4.06-5.3,5.08c0,0-1.08-8.65,7.49-8.91l6.85-.23s.24.26.33.46Z"/>
  </g>
</svg>